<svg width="753" height="49" viewBox="0 0 753 49" fill="none" xmlns="http://www.w3.org/2000/svg">
<rect y="0.399048" width="48" height="48" rx="8" fill="#E8F5E9"/>
<g clip-path="url(#clip0_22_791)">
<path fill-rule="evenodd" clip-rule="evenodd" d="M10.3533 0.593567C15.8761 0.593567 20.3533 5.07072 20.3533 10.5936V0.593567H30.3533C35.8761 0.593567 40.3533 5.07072 40.3533 10.5936C40.3533 16.1164 35.8761 20.5936 30.3533 20.5936C35.8761 20.5936 40.3533 25.0708 40.3533 30.5936C40.3533 33.3359 39.2494 35.8204 37.4618 37.627L37.4244 37.6647L37.3912 37.6977C35.5842 39.4879 33.0979 40.5936 30.3533 40.5936C27.6274 40.5936 25.1562 39.5029 23.3523 37.7341C23.3289 37.7111 23.3055 37.6879 23.2822 37.6647C23.2603 37.6428 23.2385 37.6208 23.2168 37.5987C21.4457 35.7945 20.3533 33.3216 20.3533 30.5936C20.3533 36.1164 15.8761 40.5936 10.3533 40.5936C4.83048 40.5936 0.353333 36.1164 0.353333 30.5936V20.5936H10.3533C4.83048 20.5936 0.353333 16.1164 0.353333 10.5936C0.353333 5.07072 4.83048 0.593567 10.3533 0.593567ZM18.3533 10.5936C18.3533 15.0119 14.7716 18.5936 10.3533 18.5936V2.59357C14.7716 2.59357 18.3533 6.17529 18.3533 10.5936ZM38.3533 30.5936C38.3533 26.1753 34.7716 22.5936 30.3533 22.5936C25.935 22.5936 22.3533 26.1753 22.3533 30.5936H38.3533ZM2.35333 22.5936V30.5936C2.35333 35.0119 5.93505 38.5936 10.3533 38.5936C14.7716 38.5936 18.3533 35.0119 18.3533 30.5936V22.5936H2.35333ZM22.3533 18.5936V2.59357H30.3533C34.7716 2.59357 38.3533 6.17529 38.3533 10.5936C38.3533 15.0119 34.7716 18.5936 30.3533 18.5936H22.3533Z" fill="#5417D7"/>
</g>
<rect x="89" y="0.399048" width="48" height="48" rx="8" fill="#F5F7FA"/>
<g clip-path="url(#clip1_22_791)">
<path fill-rule="evenodd" clip-rule="evenodd" d="M99.0981 14.3605L89.1123 24.2458C91.1096 26.2231 93.3913 27.8895 95.8789 29.1932C96.5665 30.9988 97.6443 32.6921 99.1123 34.1453C104.635 39.6126 113.59 39.6126 119.112 34.1453C120.58 32.6921 121.658 30.9988 122.346 29.1931C124.833 27.8895 127.115 26.2231 129.112 24.2458L119.135 14.3685C119.127 14.3611 119.12 14.3537 119.112 14.3463C113.59 8.87902 104.635 8.87902 99.1123 14.3463C99.1076 14.3511 99.1028 14.3558 99.0981 14.3605ZM118.157 30.9767C115.247 31.9489 112.192 32.4468 109.112 32.4468C106.033 32.4468 102.978 31.9489 100.068 30.9767C100.383 31.3908 100.731 31.7882 101.112 32.1654C105.531 36.5393 112.694 36.5393 117.112 32.1654C117.493 31.7882 117.842 31.3908 118.157 30.9767ZM101.317 16.1282C102.068 16.619 102.866 17.0389 103.7 17.3812C105.416 18.0848 107.255 18.4469 109.112 18.4469C110.97 18.4469 112.809 18.0848 114.524 17.3812C115.359 17.0389 116.157 16.6189 116.907 16.1282C112.544 12.0184 105.681 12.0184 101.317 16.1282Z" fill="#3B4158"/>
</g>
<rect x="178" y="0.399048" width="48" height="48" rx="8" fill="#F5F7FA"/>
<g clip-path="url(#clip2_22_791)">
<path d="M232.996 19.9155C233.001 19.8738 233.001 19.8316 232.996 19.7899C233.001 19.756 233.001 19.7213 232.996 19.6873L232.588 16.7546C232.53 16.4038 232.372 16.0758 232.134 15.8075L232.064 15.7276L231.937 15.6021L224.883 9.64552L225.081 9.83953C224.919 9.64964 224.716 9.49776 224.486 9.39507C224.256 9.29238 224.006 9.24149 223.754 9.24615H221.612C221.264 9.23938 220.924 9.34794 220.646 9.55425C220.355 9.34918 220.004 9.24118 219.645 9.24615H217.503C217.222 9.24168 216.945 9.31002 216.7 9.44428C216.455 9.57853 216.25 9.77393 216.107 10.0107C215.885 10.3488 215.802 10.7563 215.874 11.1518L216.142 13.0004C215.964 12.9018 215.763 12.8507 215.56 12.8521H205.189C204.817 12.8543 204.453 12.9613 204.141 13.1601C203.839 13.3453 203.597 13.6103 203.443 13.9247L202.64 13.2514C202.324 12.9647 201.906 12.8093 201.476 12.8178H185.204C184.83 12.8245 184.465 12.9268 184.144 13.1145C183.706 13.3662 183.384 13.7755 183.248 14.2556L178.08 31.201C177.984 31.4803 177.974 31.7814 178.053 32.0659C178.132 32.3504 178.295 32.6056 178.522 32.7986C178.582 32.8478 178.644 32.8936 178.709 32.9355C178.709 32.9355 178.604 32.867 178.546 32.81L185.599 38.778C185.898 39.0473 186.288 39.1978 186.693 39.2002H203.094C203.468 39.1906 203.833 39.0844 204.153 38.8921C204.333 38.7953 204.495 38.6678 204.63 38.5155L204.688 38.4356L204.781 38.3216L204.851 38.196L205.619 38.8465C205.913 39.1051 206.295 39.2473 206.69 39.2458H223.125C223.499 39.2336 223.864 39.1276 224.184 38.9377C224.361 38.8351 224.522 38.7083 224.662 38.5612L224.72 38.4813L224.813 38.3672C224.863 38.295 224.905 38.2187 224.941 38.1389C224.979 38.0698 225.01 37.9972 225.034 37.9222L229.748 22.4488V22.3118C229.754 22.2587 229.754 22.2052 229.748 22.1521V22.0494C229.754 22.0153 229.754 21.9807 229.748 21.9466C229.753 21.8745 229.753 21.802 229.748 21.7298H231.261C231.393 21.7417 231.525 21.7417 231.657 21.7298H231.762C231.847 21.7049 231.929 21.6704 232.006 21.6271H232.123L232.332 21.4674L232.425 21.3989L232.588 21.1935V21.1251L232.705 20.9311C232.698 20.8933 232.698 20.8547 232.705 20.817C232.698 20.7985 232.698 20.7785 232.705 20.7599C232.729 20.693 232.749 20.6243 232.763 20.5545C232.757 20.532 232.757 20.5085 232.763 20.486C232.757 20.4521 232.757 20.4173 232.763 20.3834C232.763 20.3834 232.996 19.9383 232.996 19.9155Z" fill="black"/>
<path d="M201.953 14.1187C202.015 14.1735 202.058 14.2455 202.077 14.3251C202.095 14.4047 202.089 14.4879 202.058 14.5637L196.901 31.4977C196.836 31.6826 196.704 31.8372 196.529 31.9314C196.387 32.0246 196.222 32.0797 196.052 32.0911H179.663C179.523 32.0845 179.391 32.0277 179.291 31.9314C179.231 31.8775 179.19 31.8074 179.171 31.7302C179.152 31.653 179.157 31.5721 179.186 31.4977L184.354 14.5637C184.413 14.3765 184.542 14.2178 184.715 14.1187C184.859 14.0322 185.023 13.9813 185.192 13.9703H201.58C201.719 13.9717 201.852 14.0247 201.953 14.1187ZM193.398 28.0858L196.482 17.9756H187.846L184.773 28.0858H193.398ZM217.597 14.2899C217.652 14.3536 217.722 14.4041 217.801 14.4377C217.88 14.4712 217.965 14.487 218.051 14.4838H220.181C220.262 14.4846 220.342 14.4651 220.413 14.4272C220.484 14.3893 220.544 14.3341 220.588 14.267C220.626 14.2146 220.652 14.1553 220.666 14.0926C220.68 14.0298 220.681 13.965 220.669 13.9019L220.25 10.8894C220.21 10.7499 220.139 10.6212 220.041 10.5128C219.985 10.4491 219.915 10.3986 219.836 10.365C219.758 10.3314 219.673 10.3156 219.587 10.3188H217.457C217.376 10.318 217.296 10.3375 217.225 10.3755C217.153 10.4134 217.093 10.4685 217.05 10.5356C216.968 10.6954 216.933 10.7981 216.968 10.8894L217.399 13.9019C217.421 14.0486 217.49 14.1845 217.597 14.2899ZM224.359 10.8665C224.319 10.7271 224.248 10.5984 224.15 10.49C224.096 10.4265 224.028 10.376 223.952 10.3423C223.875 10.3087 223.791 10.2928 223.707 10.296H221.566C221.486 10.2938 221.407 10.3127 221.337 10.3509C221.268 10.3891 221.21 10.445 221.17 10.5128C221.092 10.614 221.059 10.7412 221.077 10.8665L221.507 13.8791C221.534 14.0242 221.603 14.1588 221.705 14.267C221.762 14.3295 221.832 14.3792 221.911 14.4126C221.989 14.4461 222.074 14.4626 222.159 14.461H224.301C224.381 14.462 224.459 14.4426 224.528 14.4045C224.598 14.3665 224.656 14.3112 224.697 14.2442C224.737 14.1932 224.765 14.1339 224.78 14.0707C224.794 14.0075 224.793 13.942 224.778 13.8791L224.359 10.8665ZM215.723 15.431L215.513 13.9475H205.189C205.027 13.9563 204.87 14.0075 204.735 14.0959C204.649 14.1417 204.574 14.2052 204.516 14.2821C204.458 14.3589 204.417 14.4472 204.397 14.5409L203.536 17.3708C203.502 17.4415 203.49 17.5209 203.502 17.5983C203.515 17.6757 203.551 17.7475 203.606 17.8045C203.704 17.8949 203.832 17.9476 203.967 17.9528H216.514L213.43 28.063H200.917C200.756 28.0666 200.599 28.114 200.463 28.1999C200.299 28.3024 200.178 28.4609 200.126 28.645L199.253 31.4749C199.224 31.5475 199.217 31.6264 199.231 31.7029C199.245 31.7795 199.281 31.8506 199.334 31.9085C199.429 32.005 199.558 32.0622 199.695 32.0683H216.13C216.3 32.0539 216.464 31.9991 216.607 31.9085C216.779 31.8139 216.908 31.659 216.968 31.4749L221.694 16.0015H216.374C216.29 16.0031 216.206 15.9878 216.128 15.9564C216.05 15.925 215.979 15.8782 215.92 15.8189C215.824 15.7155 215.756 15.5899 215.723 15.4538V15.431Z" fill="white"/>
</g>
<rect x="267" y="0.399048" width="48" height="48" rx="8" fill="#F5F7FA"/>
<g clip-path="url(#clip3_22_791)">
<path d="M310.997 13.8106C310.997 13.8444 310.997 13.8866 310.988 13.912C310.944 14.2417 310.944 14.5714 310.97 14.9095C310.988 14.994 311.005 15.0786 311.076 15.1462C311.19 15.273 311.366 15.2476 311.437 15.0955C311.472 15.0194 311.472 14.9433 311.454 14.8672C311.366 14.546 311.349 14.2079 311.34 13.8782C311.34 13.8613 311.34 13.8359 311.34 13.8106C311.437 13.8021 311.525 13.7936 311.604 13.7936C311.666 13.7852 311.719 13.7767 311.763 13.7514C311.895 13.6838 311.895 13.54 311.754 13.4724C311.701 13.4471 311.631 13.4386 311.569 13.4386C311.349 13.4471 311.129 13.4471 310.908 13.4471C310.829 13.4471 310.75 13.4555 310.671 13.464C310.627 13.4724 310.574 13.4724 310.539 13.4978C310.477 13.5231 310.442 13.5654 310.442 13.6246C310.45 13.6838 310.477 13.7176 310.539 13.7429C310.574 13.7683 310.618 13.7767 310.662 13.7767C310.767 13.7852 310.882 13.8021 310.997 13.8106ZM313.419 14.1994C313.419 14.2079 313.427 14.2163 313.427 14.2163C313.463 14.4446 313.498 14.6644 313.524 14.8841C313.533 14.9602 313.542 15.0279 313.595 15.087C313.709 15.2307 313.885 15.2138 313.965 15.0617C314 14.9856 314.009 14.9095 313.991 14.825C313.938 14.5714 313.912 14.3178 313.859 14.0726C313.824 13.9204 313.78 13.7767 313.736 13.6415C313.709 13.557 313.648 13.4978 313.542 13.4893C313.436 13.4724 313.357 13.5231 313.313 13.5992C313.26 13.6668 313.216 13.7345 313.181 13.8106C313.119 13.9458 313.066 14.0811 312.996 14.2079C312.987 14.2417 312.978 14.267 312.961 14.2924C312.952 14.2755 312.943 14.267 312.943 14.267C312.829 14.0557 312.723 13.8444 312.608 13.6415C312.591 13.6246 312.582 13.6077 312.573 13.5908C312.52 13.5147 312.459 13.4724 312.362 13.4724C312.274 13.4809 312.203 13.5316 312.159 13.6077C312.142 13.6415 312.142 13.6668 312.133 13.7007C312.097 13.9712 312.053 14.2417 312.018 14.5122C312.001 14.6644 311.992 14.8165 311.992 14.9687C311.983 15.0025 311.992 15.0448 312.009 15.0786C312.027 15.1462 312.08 15.1885 312.15 15.1969C312.238 15.2054 312.3 15.18 312.326 15.1124C312.353 15.0617 312.362 15.0194 312.371 14.9771C312.406 14.825 312.432 14.6813 312.459 14.5376C312.476 14.453 312.485 14.3854 312.511 14.2924C312.529 14.3262 312.547 14.3516 312.564 14.3769C312.644 14.4784 312.723 14.5798 312.82 14.6644C312.917 14.732 312.996 14.7235 313.075 14.6474C313.093 14.6305 313.102 14.6221 313.119 14.6052C313.198 14.4868 313.295 14.3685 313.375 14.2501C313.392 14.2332 313.401 14.2163 313.419 14.1994Z" fill="#3A3B7B"/>
<path d="M293.124 13.9767C293.063 14.1373 293.052 14.253 293.08 14.3492C293.111 14.4801 293.192 14.5229 293.302 14.4896C294.337 14.2441 296.605 14.941 297.445 15.1353C297.643 15.176 297.804 14.9306 297.669 14.7106C297.472 14.4975 295.204 13.5852 294.339 13.5355C294 13.5171 293.394 13.4336 293.124 13.9767Z" fill="#3A3B7B"/>
<path d="M301.99 11.0235C302.101 11.0845 302.162 11.1428 302.193 11.2079C302.238 11.2933 302.214 11.3524 302.138 11.3825C301.454 11.7029 300.544 13.0819 300.177 13.5576C300.088 13.667 299.882 13.6034 299.851 13.4235C299.858 13.22 300.664 11.7234 301.115 11.3158C301.291 11.1566 301.584 10.8444 301.99 11.0235Z" fill="#3A3B7B"/>
<path d="M296.544 10.3446C296.677 10.2488 296.815 10.2152 296.885 10.2775C297.917 11.1244 298.464 12.4655 298.803 13.6933C298.815 13.7219 298.816 13.7629 298.806 13.8057C298.802 13.8423 298.774 13.881 298.73 13.9109C298.682 13.9439 298.642 13.954 298.623 13.9255C298.17 13.3352 295.588 11.0384 296.544 10.3446Z" fill="#3A3B7B"/>
<path d="M274.695 25.0277C274.943 24.8509 275.211 24.7038 275.496 24.5897C275.793 24.508 276.111 24.5215 276.4 24.6283C276.689 24.7351 276.933 24.9292 277.097 25.1814C277.244 25.4329 277.301 25.7233 277.26 26.0088C277.22 26.2942 277.084 26.5594 276.873 26.7643C276.709 26.9304 276.523 27.0751 276.321 27.1946C275.416 27.7556 274.503 28.2857 273.59 28.8467C273.404 28.9871 273.206 29.113 272.998 29.2232C272.682 29.3744 272.321 29.4148 271.978 29.3376C271.634 29.2605 271.33 29.0705 271.116 28.8006C270.957 28.6095 270.823 28.4005 270.716 28.1782C269.851 26.4339 268.955 24.6972 268.122 22.9222C267.738 22.1538 267.426 21.2701 267.121 20.4172C266.99 20.1694 266.964 19.8821 267.05 19.6163C267.135 19.3506 267.326 19.1274 267.58 18.9943C267.835 18.8611 268.133 18.8286 268.412 18.9034C268.692 18.9783 268.929 19.1548 269.075 19.3952C269.523 19.9664 269.919 20.5731 270.26 21.2087C271.124 22.7455 271.949 24.2823 272.782 25.773C272.83 25.8554 272.884 25.9349 272.942 26.0112C273.569 25.7583 274.158 25.4277 274.695 25.0277Z" fill="#3A3B7B"/>
<path d="M283.635 24.4916C281.658 26.7123 278.343 26.1513 276.678 23.2928C275.493 21.2642 275.285 17.9139 277.863 15.8008C278.413 15.3584 279.072 15.057 279.776 14.9248C280.64 14.8059 281.521 14.9522 282.294 15.3428C283.066 15.7333 283.689 16.3482 284.076 17.0994C285.485 19.5584 285.285 22.6935 283.635 24.4916ZM282.835 19.3124C282.625 18.7082 282.203 18.1923 281.642 17.8524C281.324 17.6351 280.938 17.5295 280.549 17.5533C280.16 17.5771 279.791 17.7288 279.504 17.9831C278.359 18.959 278.119 21.2719 278.952 22.6474C279.058 22.8717 279.214 23.071 279.409 23.2314C279.603 23.3918 279.832 23.5095 280.079 23.576C280.326 23.6427 280.586 23.6566 280.839 23.617C281.092 23.5774 281.333 23.4851 281.546 23.3466C282.166 22.8848 282.622 22.2489 282.848 21.5273C283.075 20.8057 283.062 20.0342 282.811 19.3202L282.835 19.3124Z" fill="#3A3B7B"/>
<path d="M291.706 20.2806C291.503 20.3224 291.294 20.3249 291.09 20.288C290.887 20.251 290.693 20.1754 290.521 20.0655C290.37 19.9826 290.24 19.8686 290.14 19.7318C290.04 19.5949 289.974 19.4385 289.945 19.2739C289.916 19.1093 289.925 18.9406 289.972 18.7798C290.019 18.6191 290.102 18.4703 290.216 18.3442C290.415 18.0909 290.697 17.9095 291.017 17.8294C291.852 17.5969 292.711 17.4551 293.579 17.4068C293.77 17.3855 293.963 17.401 294.147 17.4524C294.332 17.5038 294.503 17.5899 294.653 17.7059C294.802 17.8218 294.925 17.9653 295.016 18.1277C295.106 18.2901 295.162 18.4682 295.18 18.6516C295.43 19.5526 295.458 20.4973 295.26 21.4103C294.54 24.3609 292.058 25.3752 289.272 24.4301C288.49 24.1774 287.804 23.7065 287.302 23.0777C286.633 22.3204 286.159 21.4229 285.917 20.4574C285.721 19.5976 285.743 18.7055 285.98 17.8553C286.216 17.0052 286.662 16.2217 287.278 15.5703C287.863 14.8623 288.623 14.3051 289.488 13.9489C290.035 13.6597 290.674 13.5774 291.281 13.7184C291.419 13.755 291.544 13.8262 291.643 13.9248C291.742 14.0233 291.812 14.1456 291.846 14.2788C291.88 14.4121 291.875 14.5515 291.834 14.6827C291.792 14.8139 291.715 14.9319 291.61 15.0247C291.41 15.1984 291.192 15.3528 290.961 15.4858C290.249 15.9208 289.63 16.4814 289.136 17.1378C288.812 17.5626 288.588 18.0504 288.482 18.5668C288.375 19.0832 288.388 19.6158 288.519 20.127C288.701 20.8241 289.104 21.4497 289.672 21.9174C291.433 23.4542 293.723 21.9711 293.323 19.8734C292.738 20.0117 292.226 20.1577 291.706 20.2806Z" fill="#3A3B7B"/>
<path d="M302.466 24.6145C299.864 26.1514 296.902 24.6145 296.253 21.3872C295.781 19.082 296.678 15.8546 299.816 14.6251C300.484 14.3692 301.208 14.2793 301.922 14.3639C302.779 14.5145 303.565 14.9196 304.17 15.5221C304.775 16.1245 305.167 16.8939 305.292 17.7219C305.821 20.4651 304.62 23.3927 302.466 24.6145ZM303.371 19.4431C303.37 18.8047 303.135 18.187 302.706 17.6988C302.477 17.3968 302.146 17.1804 301.769 17.0865C301.393 16.9926 300.994 17.027 300.641 17.184C299.232 17.7679 298.239 19.8887 298.599 21.4487C298.627 21.6935 298.709 21.9296 298.842 22.1404C298.974 22.3512 299.153 22.5318 299.366 22.6694C299.579 22.8069 299.82 22.8983 300.074 22.937C300.327 22.9756 300.586 22.9607 300.833 22.8933C301.578 22.6436 302.222 22.1768 302.677 21.5583C303.132 20.9397 303.375 20.2002 303.371 19.4431Z" fill="#3A3B7B"/>
<path d="M307.924 25.26C307.884 25.5413 307.73 25.796 307.495 25.9682C307.26 26.1404 306.964 26.216 306.671 26.1783C306.378 26.1406 306.112 25.9927 305.933 25.7671C305.753 25.5417 305.675 25.2569 305.714 24.9757C305.753 24.6945 305.907 24.4397 306.142 24.2675C306.377 24.0953 306.674 24.0197 306.967 24.0574C307.26 24.0951 307.525 24.243 307.705 24.4685C307.884 24.6941 307.963 24.9788 307.924 25.26ZM307.227 14.8941C307.379 14.6709 307.603 14.5009 307.864 14.4095C308.125 14.3181 308.41 14.3102 308.676 14.3869C308.947 14.4519 309.186 14.6042 309.354 14.8182C309.521 15.0322 309.607 15.295 309.597 15.5626C309.562 15.9918 309.495 16.418 309.397 16.8382C309.133 18.2598 308.876 19.6813 308.596 21.0875C308.468 21.6485 308.3 22.1864 308.116 22.755C308.052 22.9327 307.945 23.0933 307.803 23.2237C307.716 23.3218 307.604 23.397 307.478 23.4424C307.351 23.4879 307.216 23.502 307.082 23.4836C306.949 23.4653 306.823 23.4149 306.715 23.3373C306.607 23.2596 306.522 23.1571 306.466 23.0393C306.371 22.828 306.32 22.6009 306.314 22.3708C306.314 21.4179 306.314 20.4574 306.378 19.4969C306.487 18.1261 306.701 16.7649 307.019 15.4243C307.056 15.2447 307.127 15.0729 307.227 14.9171V14.8941Z" fill="#3A3B7B"/>
<path fill-rule="evenodd" clip-rule="evenodd" d="M271.313 31.4349C271.218 31.6374 271.192 31.8632 271.238 32.0805C271.269 32.3669 271.337 32.6487 271.439 32.9193C271.568 33.2507 271.711 33.5784 271.888 33.9823C271.929 34.0752 271.971 34.1723 272.016 34.2744C272.254 34.8215 272.554 35.5208 272.953 36.5329C273.066 36.8204 273.167 37.1102 273.268 37.4021C273.309 37.52 273.35 37.6383 273.392 37.7569C273.542 38.1784 273.801 38.5571 274.144 38.8573C274.289 39.0222 274.482 39.1425 274.699 39.2026C274.92 39.2639 275.155 39.26 275.373 39.1914C275.592 39.1228 275.784 38.9927 275.924 38.818C276.062 38.6467 276.143 38.4403 276.159 38.2246C276.249 37.8045 276.218 37.3689 276.071 36.9639C275.837 36.2914 275.571 35.618 275.265 34.9593L275.263 34.9564C274.758 33.9258 274.245 32.9024 273.708 31.8786L273.704 31.8714C273.547 31.6046 273.342 31.3662 273.1 31.1667C272.942 30.9887 272.725 30.8686 272.486 30.8272C272.241 30.785 271.988 30.8276 271.773 30.9475C271.57 31.059 271.408 31.2296 271.313 31.4349Z" fill="#3A3B7B"/>
<path fill-rule="evenodd" clip-rule="evenodd" d="M279.022 28.8972C278.231 28.7004 277.404 28.6718 276.6 28.8132C275.977 28.8721 275.365 29.0099 274.939 29.2831C274.723 29.4221 274.548 29.6006 274.451 29.8274C274.353 30.0555 274.341 30.3164 274.421 30.6071C274.567 31.1395 274.757 31.6571 274.947 32.1731L274.977 32.2567L274.978 32.2585C275.548 33.7576 276.124 35.2515 276.705 36.7404C276.773 36.975 276.869 37.2013 276.991 37.4148L276.993 37.4188C277.154 37.684 277.361 37.9212 277.604 38.1204C277.726 38.23 277.876 38.3058 278.039 38.3396C278.204 38.3738 278.376 38.3639 278.535 38.3109C278.694 38.258 278.836 38.1641 278.943 38.0394C279.049 37.9167 279.118 37.7689 279.144 37.6117C279.249 37.1844 279.215 36.7366 279.047 36.3282C278.995 36.1908 278.954 36.0503 278.91 35.9025C278.896 35.8532 278.881 35.8031 278.866 35.752C280.196 35.253 281.611 34.5822 282.108 33.0214C282.303 32.4821 282.32 31.8981 282.155 31.3494C281.99 30.8002 281.652 30.3134 281.187 29.9561C280.555 29.4558 279.816 29.0944 279.022 28.8972ZM276.828 30.8115C276.855 30.8043 276.881 30.7975 276.907 30.7913C277.773 30.6606 278.659 30.8347 279.402 31.2813C279.729 31.4998 279.863 31.7425 279.886 31.9761C279.91 32.2166 279.819 32.4772 279.636 32.7277C279.29 33.201 278.659 33.5797 278.089 33.6503C277.673 32.7317 277.251 31.7759 276.828 30.8115Z" fill="#3A3B7B"/>
<path d="M284.299 27.2157C285.242 26.7979 286.409 26.7257 287.323 27.0194C287.553 27.0838 287.753 27.2229 287.888 27.4131C288.022 27.602 288.084 27.8297 288.063 28.0574C288.062 28.2052 288.024 28.3505 287.953 28.4817C287.88 28.6152 287.775 28.7301 287.647 28.8165C287.519 28.9029 287.371 28.9585 287.215 28.9783C287.06 28.9982 286.901 28.9819 286.754 28.9307L286.743 28.9268L286.732 28.9215C286.657 28.8836 286.577 28.855 286.494 28.8364L286.488 28.8353C285.846 28.6715 285.24 28.9429 285.018 29.2765C284.912 29.4355 284.899 29.5961 284.987 29.7422C285.082 29.8986 285.313 30.0741 285.78 30.1992C285.909 30.233 286.04 30.2657 286.174 30.299C286.544 30.3908 286.928 30.4863 287.3 30.6185L287.301 30.6191C289.015 31.2449 289.653 32.5412 289.435 33.7604C289.218 34.966 288.169 36.0633 286.592 36.3221C286.018 36.4442 285.42 36.4205 284.858 36.2531C284.295 36.0852 283.788 35.779 283.386 35.3645L283.376 35.3537C283.249 35.1976 283.164 35.0142 283.126 34.8195C283.091 34.6439 283.11 34.4624 283.179 34.2963C283.247 34.1313 283.364 33.9885 283.514 33.8844C283.672 33.7664 283.863 33.6956 284.063 33.6809C284.263 33.6662 284.462 33.7078 284.637 33.8004C284.812 33.8815 284.975 33.9849 285.121 34.1079L285.123 34.1101C285.382 34.3368 285.694 34.3959 285.994 34.3412C286.298 34.2857 286.584 34.113 286.767 33.884C286.95 33.6564 287.023 33.3861 286.936 33.1236C286.849 32.8593 286.585 32.5631 286.007 32.3154C285.856 32.2538 285.699 32.2041 285.536 32.1557C285.492 32.1427 285.447 32.1297 285.402 32.1165C285.281 32.0814 285.157 32.0452 285.036 32.0053C284.952 31.9779 284.869 31.952 284.786 31.9262C284.561 31.8559 284.342 31.7873 284.131 31.6954C283.672 31.5452 283.275 31.2569 282.999 30.8732C282.723 30.4878 282.584 30.0271 282.603 29.5596C282.604 28.4205 283.352 27.6358 284.299 27.2157Z" fill="#3A3B7B"/>
<path d="M296.249 27.0943C296.066 27.0086 295.864 26.968 295.661 26.976C295.457 26.984 295.26 27.0404 295.085 27.1403C294.911 27.2394 294.766 27.3782 294.661 27.5444C294.566 27.6843 294.5 27.8408 294.467 28.0051C294.434 28.1692 294.435 28.338 294.469 28.5018C294.503 28.7123 294.541 28.917 294.578 29.1189C294.64 29.453 294.7 29.7795 294.739 30.1125L294.741 30.1209C294.831 30.6431 294.878 31.1713 294.883 31.7005L294.883 31.708C294.914 32.2796 294.711 32.84 294.318 33.2704L294.311 33.2781C294.184 33.4354 294.013 33.5555 293.818 33.6249C293.623 33.6943 293.411 33.7102 293.207 33.6709C293.003 33.6317 292.815 33.5387 292.663 33.4025C292.511 33.2663 292.401 33.0916 292.347 32.8991C292.23 32.4933 292.162 32.0759 292.145 31.6552L292.345 28.6061C292.347 28.5663 292.351 28.5254 292.354 28.4842C292.362 28.3916 292.37 28.2972 292.373 28.2092C292.378 28.0798 292.374 27.9467 292.342 27.8206C292.31 27.6919 292.249 27.5693 292.14 27.465C292.033 27.3617 291.888 27.2855 291.705 27.2337C291.375 27.142 291.096 27.1449 290.864 27.2396C290.631 27.3343 290.472 27.5102 290.359 27.7133C290.247 27.9147 290.175 28.1532 290.121 28.392C290.08 28.5692 290.048 28.7553 290.017 28.9324C290.006 28.9934 289.996 29.0533 289.985 29.1115L289.985 29.1133C289.82 30.0845 289.771 31.0706 289.839 32.0525C289.852 32.5832 289.967 33.107 290.179 33.5971C290.418 34.2296 290.852 34.7776 291.422 35.1687C291.994 35.5607 292.676 35.7767 293.379 35.7881C294.081 35.7995 294.771 35.6058 295.356 35.2327C295.94 34.8601 296.393 34.3261 296.654 33.7013C297.02 32.9055 297.192 32.04 297.157 31.1707C297.135 30.5362 297.099 29.8967 297.063 29.2605C297.046 28.9484 297.028 28.637 297.012 28.3275C297.005 28.0171 296.898 27.7165 296.707 27.466C296.589 27.3076 296.431 27.1799 296.249 27.0943Z" fill="#3A3B7B"/>
<path d="M302.717 31.8754C302.699 31.898 302.679 31.9214 302.659 31.9458C302.51 31.1227 302.372 30.2999 302.234 29.4758C302.185 29.1801 302.135 28.8832 302.085 28.5872L302.08 28.5541L302.061 28.5256C302.027 28.4719 302.023 28.4192 302.023 28.3069V28.2939L302.021 28.2811C301.984 28.0491 301.875 27.8333 301.708 27.6618C301.541 27.4908 301.325 27.3717 301.087 27.3201C300.85 27.2638 300.6 27.2762 300.37 27.3557C300.14 27.435 299.94 27.5775 299.794 27.7653C299.673 27.9095 299.574 28.0694 299.499 28.2402C299.331 28.6082 299.16 28.9772 298.989 29.3472L298.987 29.3535C298.56 30.2771 298.131 31.2069 297.714 32.144L297.713 32.147C297.457 32.7547 297.246 33.3949 297.035 34.0332C296.993 34.1606 296.951 34.2879 296.909 34.4149C296.833 34.6163 296.799 34.8303 296.811 35.0441C296.797 35.2356 296.845 35.4266 296.948 35.5913C297.053 35.7594 297.21 35.8916 297.397 35.9694C297.596 36.053 297.818 36.0707 298.028 36.0199C298.238 35.969 298.425 35.8528 298.558 35.6893C298.729 35.488 298.876 35.2684 298.995 35.0357C299.348 34.3425 299.686 33.6408 300.022 32.9422C300.152 32.6719 300.278 32.4299 300.422 32.1664C300.431 32.1988 300.442 32.2305 300.452 32.2623C300.603 32.8987 300.857 33.5082 301.205 34.0686C301.271 34.1873 301.363 34.291 301.474 34.3727C301.587 34.4553 301.717 34.5133 301.856 34.5428C301.994 34.5722 302.138 34.5724 302.277 34.5432C302.415 34.514 302.546 34.456 302.658 34.3737L302.882 34.2132L304.616 32.8115L304.513 33.4387C304.372 34.3007 304.233 35.1555 304.084 36.0106C303.987 36.3895 303.987 36.7854 304.085 37.1642C304.127 37.3775 304.234 37.5737 304.393 37.7281C304.554 37.8837 304.759 37.9894 304.983 38.0316C305.206 38.0737 305.438 38.0504 305.648 37.9645C305.855 37.8799 306.03 37.7385 306.153 37.5582C306.439 37.2178 306.617 36.8057 306.666 36.3709C306.739 35.7569 306.823 35.1345 306.906 34.5123C307.002 33.7952 307.097 33.0782 307.178 32.375L307.179 32.3728C307.256 31.6031 307.294 30.8302 307.292 30.0568C307.309 29.8124 307.245 29.5689 307.11 29.3609C306.975 29.1521 306.774 28.9897 306.537 28.8969C306.29 28.7892 306.013 28.7604 305.748 28.8148C305.485 28.8689 305.246 29.0021 305.068 29.1952C304.748 29.479 304.448 29.7828 304.169 30.1045L304.168 30.1067C303.864 30.47 303.562 30.8405 303.262 31.2086C303.08 31.4324 302.898 31.6556 302.717 31.8754Z" fill="#3A3B7B"/>
</g>
<rect x="356" y="0.399048" width="48" height="48" rx="8" fill="#F5F7FA"/>
<g clip-path="url(#clip4_22_791)">
<path d="M394.438 12.0896C394.438 12.5556 394.82 12.9333 395.292 12.9333H396.146C396.618 12.9333 397 12.5556 397 12.0896C397 11.6236 396.618 11.2458 396.146 11.2458H395.292C394.82 11.2458 394.438 11.6236 394.438 12.0896Z" fill="#212326"/>
<path d="M369.667 38.2458H373.816L372.608 37.0526C372.288 36.7361 371.853 36.5583 371.4 36.5583H369.667C363.062 36.5583 357.708 31.2697 357.708 24.7458C357.708 18.222 363.062 12.9334 369.667 12.9333H383.333C389.938 12.9333 395.292 18.222 395.292 24.7458C395.292 31.2697 389.938 36.5583 383.333 36.5583H378.221C377.541 36.5583 376.889 36.2917 376.409 35.817L374.994 34.419C374.193 33.6278 373.106 33.1833 371.974 33.1833H369.667C364.949 33.1833 361.125 29.4058 361.125 24.7458C361.125 20.0859 364.949 16.3083 369.667 16.3083H383.333C388.051 16.3083 391.875 20.0859 391.875 24.7458C391.875 29.4058 388.051 33.1833 383.333 33.1833H380.051C379.371 33.1833 378.719 32.9167 378.239 32.442L376.823 31.044C376.022 30.2528 374.936 29.8083 373.803 29.8083H369.667C366.836 29.8083 364.542 27.5418 364.542 24.7458C364.542 21.9499 366.836 19.6833 369.667 19.6833H383.333C386.164 19.6833 388.458 21.9499 388.458 24.7458C388.458 27.5077 386.219 29.753 383.437 29.8073L383.436 29.8083H382.186C381.506 29.8083 380.855 29.5417 380.374 29.067L378.959 27.669C378.302 27.0198 377.452 26.6041 376.543 26.4757L376.5 26.4333H369.667C368.723 26.4333 367.958 25.6778 367.958 24.7458C367.958 23.8139 368.723 23.0583 369.667 23.0583H383.333C384.277 23.0583 385.042 23.8139 385.042 24.7458C385.042 25.6778 384.277 26.4333 383.333 26.4333H379.917L381.125 27.6266C381.445 27.9431 381.88 28.1208 382.333 28.1208H383.333C385.22 28.1208 386.75 26.6098 386.75 24.7458C386.75 22.8819 385.22 21.3708 383.333 21.3708H369.667C367.78 21.3708 366.25 22.8819 366.25 24.7458C366.25 26.6098 367.78 28.1208 369.667 28.1208H375.939C376.619 28.1208 377.27 28.3875 377.751 28.8622L379.166 30.2602C379.967 31.0514 381.053 31.4958 382.186 31.4958H383.76V31.4829C387.335 31.2651 390.167 28.3321 390.167 24.7458C390.167 21.018 387.107 17.9958 383.333 17.9958H369.667C365.893 17.9958 362.833 21.018 362.833 24.7458C362.833 28.4738 365.893 31.4958 369.667 31.4958H373.803C374.483 31.4958 375.135 31.7625 375.615 32.2372L377.031 33.6352C377.832 34.4264 378.918 34.8708 380.051 34.8708H383.333C388.994 34.8708 393.583 30.3378 393.583 24.7458C393.583 19.1539 388.994 14.6208 383.333 14.6208H369.667C364.006 14.6208 359.417 19.1539 359.417 24.7458C359.417 30.3378 364.006 34.8708 369.667 34.8708H371.974C372.653 34.8708 373.305 35.1375 373.786 35.6122L375.201 37.0102C376.002 37.8014 377.088 38.2458 378.221 38.2458H383.333C390.881 38.2458 397 32.2017 397 24.7458C397 17.29 390.881 11.2458 383.333 11.2458L369.667 11.2459C362.119 11.2459 356 17.29 356 24.7458C356 32.2017 362.119 38.2458 369.667 38.2458Z" fill="#212326"/>
</g>
<rect x="445" y="0.399048" width="48" height="48" rx="8" fill="#F5F7FA"/>
<g clip-path="url(#clip5_22_791)">
<path d="M457.343 14.2458C455.312 14.2458 453.365 15.0525 451.929 16.4885L447.243 21.1748C445.807 22.6107 445 24.5582 445 26.589C445 30.8178 448.428 34.2458 452.657 34.2458C454.688 34.2458 456.635 33.4391 458.071 32.0032L461.313 28.7617C461.313 28.7616 461.313 28.7617 461.313 28.7617L470.757 19.3169C471.443 18.6311 472.373 18.2458 473.343 18.2458C474.967 18.2458 476.343 19.3041 476.821 20.7686L479.801 17.7878C478.442 15.6581 476.057 14.2458 473.343 14.2458C471.312 14.2458 469.365 15.0525 467.929 16.4885L455.243 29.1748C454.557 29.8606 453.627 30.2458 452.657 30.2458C450.637 30.2458 449 28.6087 449 26.589C449 25.6191 449.385 24.689 450.071 24.0032L454.757 19.3169C455.443 18.6311 456.373 18.2458 457.343 18.2458C458.967 18.2458 460.343 19.3042 460.821 20.7687L463.802 17.7879C462.442 15.6581 460.057 14.2458 457.343 14.2458Z" fill="#394149"/>
<path d="M471.243 29.1748C470.557 29.8606 469.627 30.2458 468.657 30.2458C467.033 30.2458 465.657 29.1878 465.18 27.7236L462.199 30.7043C463.559 32.8338 465.943 34.2458 468.657 34.2458C470.688 34.2458 472.635 33.4391 474.071 32.0032L486.757 19.3169C487.443 18.6311 488.373 18.2458 489.343 18.2458C491.363 18.2458 493 19.8831 493 21.9027C493 22.8726 492.615 23.8027 491.929 24.4885L487.243 29.1748C486.557 29.8606 485.627 30.2458 484.657 30.2458C483.033 30.2458 481.657 29.1876 481.179 27.7233L478.199 30.7041C479.559 32.8337 481.943 34.2458 484.657 34.2458C486.688 34.2458 488.635 33.4391 490.071 32.0032L494.757 27.3169C496.193 25.881 497 23.9334 497 21.9027C497 17.6739 493.572 14.2458 489.343 14.2458C487.312 14.2458 485.365 15.0525 483.929 16.4885L471.243 29.1748Z" fill="#394149"/>
</g>
<path d="M534.435 16.8536H537.659L541.977 27.3934H542.148L546.466 16.8536H549.69V31.399H547.162V21.4061H547.027L543.007 31.3564H541.118L537.098 21.3848H536.963V31.399H534.435V16.8536ZM557.276 31.6121C556.182 31.6121 555.237 31.3848 554.442 30.9303C553.651 30.471 553.043 29.8223 552.616 28.9843C552.19 28.1415 551.977 27.1495 551.977 26.0084C551.977 24.8863 552.19 23.9014 552.616 23.0539C553.047 22.2016 553.649 21.5387 554.42 21.0652C555.192 20.587 556.099 20.3479 557.141 20.3479C557.813 20.3479 558.447 20.4568 559.044 20.6746C559.645 20.8877 560.176 21.2191 560.635 21.6689C561.099 22.1187 561.464 22.6917 561.729 23.3877C561.994 24.079 562.126 24.9028 562.126 25.8593V26.6476H553.185V24.9147H559.662C559.657 24.4222 559.551 23.9843 559.342 23.6008C559.134 23.2125 558.843 22.9071 558.469 22.6846C558.099 22.462 557.669 22.3508 557.176 22.3508C556.651 22.3508 556.189 22.4786 555.791 22.7343C555.393 22.9852 555.083 23.3167 554.861 23.7286C554.643 24.1358 554.532 24.5832 554.527 25.0709V26.5837C554.527 27.2182 554.643 27.7627 554.875 28.2172C555.107 28.667 555.431 29.0127 555.848 29.2542C556.265 29.4909 556.752 29.6093 557.311 29.6093C557.685 29.6093 558.024 29.5572 558.327 29.453C558.63 29.3441 558.893 29.1855 559.115 28.9772C559.338 28.7688 559.506 28.5108 559.619 28.203L562.02 28.4729C561.868 29.1074 561.58 29.6614 561.153 30.1348C560.732 30.6036 560.192 30.9682 559.534 31.2286C558.876 31.4843 558.123 31.6121 557.276 31.6121ZM569.131 31.6121C568.037 31.6121 567.093 31.3848 566.297 30.9303C565.507 30.471 564.898 29.8223 564.472 28.9843C564.046 28.1415 563.833 27.1495 563.833 26.0084C563.833 24.8863 564.046 23.9014 564.472 23.0539C564.903 22.2016 565.504 21.5387 566.276 21.0652C567.048 20.587 567.954 20.3479 568.996 20.3479C569.668 20.3479 570.303 20.4568 570.9 20.6746C571.501 20.8877 572.031 21.2191 572.49 21.6689C572.954 22.1187 573.319 22.6917 573.584 23.3877C573.849 24.079 573.982 24.9028 573.982 25.8593V26.6476H565.04V24.9147H571.517C571.513 24.4222 571.406 23.9843 571.198 23.6008C570.989 23.2125 570.698 22.9071 570.324 22.6846C569.955 22.462 569.524 22.3508 569.032 22.3508C568.506 22.3508 568.044 22.4786 567.647 22.7343C567.249 22.9852 566.939 23.3167 566.716 23.7286C566.498 24.1358 566.387 24.5832 566.382 25.0709V26.5837C566.382 27.2182 566.498 27.7627 566.73 28.2172C566.962 28.667 567.287 29.0127 567.703 29.2542C568.12 29.4909 568.608 29.6093 569.167 29.6093C569.541 29.6093 569.879 29.5572 570.182 29.453C570.485 29.3441 570.748 29.1855 570.971 28.9772C571.193 28.7688 571.361 28.5108 571.475 28.203L573.875 28.4729C573.724 29.1074 573.435 29.6614 573.009 30.1348C572.587 30.6036 572.048 30.9682 571.39 31.2286C570.731 31.4843 569.979 31.6121 569.131 31.6121ZM581.604 20.49V22.4786H575.333V20.49H581.604ZM576.881 17.8763H579.452V28.1178C579.452 28.4634 579.504 28.7286 579.609 28.9133C579.718 29.0932 579.86 29.2163 580.035 29.2826C580.21 29.3489 580.404 29.382 580.617 29.382C580.778 29.382 580.925 29.3702 581.058 29.3465C581.195 29.3228 581.299 29.3015 581.37 29.2826L581.803 31.2925C581.666 31.3399 581.469 31.3919 581.214 31.4488C580.963 31.5056 580.655 31.5387 580.29 31.5482C579.647 31.5671 579.067 31.4701 578.55 31.257C578.034 31.0392 577.625 30.703 577.322 30.2485C577.023 29.7939 576.877 29.2258 576.881 28.5439V17.8763ZM591.855 31.6192C591.163 31.6192 590.541 31.4961 589.987 31.2499C589.438 30.999 589.002 30.6296 588.68 30.1419C588.363 29.6543 588.204 29.0529 588.204 28.338C588.204 27.7224 588.318 27.2134 588.545 26.811C588.772 26.4085 589.083 26.0865 589.475 25.8451C589.868 25.6036 590.311 25.4213 590.804 25.2982C591.301 25.1704 591.815 25.078 592.345 25.0212C592.984 24.9549 593.502 24.8957 593.9 24.8436C594.298 24.7868 594.587 24.7016 594.767 24.588C594.951 24.4696 595.044 24.2873 595.044 24.0411V23.9985C595.044 23.4634 594.885 23.0491 594.568 22.7556C594.251 22.462 593.794 22.3152 593.197 22.3152C592.567 22.3152 592.068 22.4526 591.699 22.7272C591.334 23.0018 591.088 23.3261 590.96 23.7002L588.559 23.3593C588.749 22.6964 589.061 22.1424 589.497 21.6973C589.932 21.2475 590.465 20.9114 591.095 20.6888C591.725 20.4615 592.421 20.3479 593.183 20.3479C593.708 20.3479 594.232 20.4095 594.752 20.5326C595.273 20.6557 595.749 20.8593 596.18 21.1434C596.611 21.4227 596.957 21.8039 597.217 22.2868C597.482 22.7698 597.615 23.3735 597.615 24.0979V31.399H595.143V29.9005H595.058C594.902 30.2035 594.681 30.4876 594.397 30.7527C594.118 31.0132 593.765 31.2239 593.339 31.3848C592.918 31.5411 592.423 31.6192 591.855 31.6192ZM592.522 29.73C593.038 29.73 593.486 29.6282 593.865 29.4246C594.243 29.2163 594.535 28.9417 594.738 28.6008C594.947 28.2598 595.051 27.8882 595.051 27.4857V26.2002C594.97 26.2665 594.833 26.328 594.639 26.3848C594.449 26.4417 594.236 26.4914 594 26.534C593.763 26.5766 593.529 26.6145 593.297 26.6476C593.065 26.6808 592.863 26.7092 592.693 26.7329C592.309 26.7849 591.966 26.8702 591.663 26.9885C591.36 27.1069 591.121 27.2726 590.946 27.4857C590.77 27.694 590.683 27.9639 590.683 28.2954C590.683 28.7688 590.856 29.1263 591.201 29.3678C591.547 29.6093 591.987 29.73 592.522 29.73ZM602.771 16.8536V31.399H600.2V16.8536H602.771ZM607.986 16.8536V31.399H605.415V16.8536H607.986ZM620.349 31.6121C619.26 31.6121 618.325 31.373 617.544 30.8948C616.767 30.4166 616.168 29.7561 615.747 28.9133C615.33 28.0657 615.122 27.0903 615.122 25.9871C615.122 24.8792 615.335 23.9014 615.761 23.0539C616.187 22.2016 616.788 21.5387 617.565 21.0652C618.346 20.587 619.27 20.3479 620.335 20.3479C621.22 20.3479 622.004 20.5113 622.686 20.838C623.372 21.1599 623.919 21.6169 624.326 22.2087C624.734 22.7958 624.966 23.4824 625.022 24.2684H622.565C622.466 23.7428 622.229 23.3048 621.855 22.9544C621.485 22.5993 620.991 22.4218 620.37 22.4218C619.845 22.4218 619.383 22.5638 618.985 22.8479C618.588 23.1273 618.278 23.5297 618.055 24.0553C617.837 24.5809 617.728 25.2106 617.728 25.9445C617.728 26.6879 617.837 27.3271 618.055 27.8621C618.273 28.3924 618.578 28.802 618.971 29.0908C619.369 29.3749 619.835 29.5169 620.37 29.5169C620.749 29.5169 621.088 29.4459 621.386 29.3039C621.689 29.1571 621.942 28.9464 622.146 28.6718C622.35 28.3972 622.489 28.0633 622.565 27.6704H625.022C624.961 28.4421 624.734 29.1263 624.341 29.7229C623.948 30.3148 623.413 30.7788 622.735 31.115C622.058 31.4464 621.263 31.6121 620.349 31.6121ZM634.087 26.811V20.49H636.658V31.399H634.165V29.4601H634.051C633.805 30.0709 633.4 30.5704 632.837 30.9587C632.278 31.347 631.589 31.5411 630.77 31.5411C630.055 31.5411 629.423 31.3825 628.874 31.0652C628.329 30.7433 627.903 30.2769 627.595 29.6661C627.287 29.0506 627.134 28.3072 627.134 27.436V20.49H629.705V27.0383C629.705 27.7295 629.894 28.2788 630.273 28.686C630.652 29.0932 631.149 29.2968 631.764 29.2968C632.143 29.2968 632.51 29.2044 632.865 29.0198C633.22 28.8351 633.511 28.5605 633.739 28.1959C633.971 27.8266 634.087 27.365 634.087 26.811ZM647.924 23.3735L645.58 23.6292C645.514 23.3924 645.398 23.1699 645.232 22.9615C645.071 22.7532 644.853 22.5851 644.578 22.4573C644.304 22.3294 643.968 22.2655 643.57 22.2655C643.035 22.2655 642.585 22.3815 642.221 22.6135C641.861 22.8455 641.683 23.1462 641.688 23.5155C641.683 23.8328 641.799 24.0908 642.036 24.2897C642.277 24.4885 642.675 24.6519 643.229 24.7797L645.09 25.1775C646.122 25.4 646.889 25.7527 647.391 26.2357C647.898 26.7186 648.153 27.3508 648.158 28.132C648.153 28.8186 647.952 29.4246 647.554 29.9502C647.161 30.471 646.614 30.8782 645.914 31.1718C645.213 31.4653 644.408 31.6121 643.499 31.6121C642.164 31.6121 641.089 31.3328 640.275 30.774C639.46 30.2106 638.975 29.427 638.819 28.4232L641.326 28.1817C641.439 28.6741 641.681 29.0458 642.05 29.2968C642.419 29.5477 642.9 29.6732 643.492 29.6732C644.103 29.6732 644.593 29.5477 644.962 29.2968C645.336 29.0458 645.523 28.7357 645.523 28.3664C645.523 28.0539 645.402 27.7958 645.161 27.5922C644.924 27.3886 644.555 27.2324 644.053 27.1235L642.192 26.7329C641.146 26.5151 640.372 26.1481 639.87 25.632C639.368 25.1112 639.119 24.453 639.124 23.6576C639.119 22.9852 639.301 22.4028 639.671 21.9104C640.045 21.4133 640.563 21.0297 641.226 20.7598C641.894 20.4852 642.663 20.3479 643.534 20.3479C644.813 20.3479 645.819 20.6202 646.553 21.1647C647.292 21.7092 647.748 22.4454 647.924 23.3735ZM655.725 20.49V22.4786H649.454V20.49H655.725ZM651.002 17.8763H653.574V28.1178C653.574 28.4634 653.626 28.7286 653.73 28.9133C653.839 29.0932 653.981 29.2163 654.156 29.2826C654.331 29.3489 654.525 29.382 654.738 29.382C654.899 29.382 655.046 29.3702 655.179 29.3465C655.316 29.3228 655.42 29.3015 655.491 29.2826L655.924 31.2925C655.787 31.3399 655.591 31.3919 655.335 31.4488C655.084 31.5056 654.776 31.5387 654.412 31.5482C653.768 31.5671 653.188 31.4701 652.672 31.257C652.155 31.0392 651.746 30.703 651.443 30.2485C651.145 29.7939 650.998 29.2258 651.002 28.5439V17.8763ZM662.517 31.6121C661.452 31.6121 660.528 31.3777 659.747 30.909C658.966 30.4402 658.36 29.7845 657.929 28.9417C657.503 28.0989 657.29 27.114 657.29 25.9871C657.29 24.8602 657.503 23.873 657.929 23.0255C658.36 22.1779 658.966 21.5198 659.747 21.051C660.528 20.5823 661.452 20.3479 662.517 20.3479C663.582 20.3479 664.506 20.5823 665.287 21.051C666.068 21.5198 666.672 22.1779 667.098 23.0255C667.529 23.873 667.744 24.8602 667.744 25.9871C667.744 27.114 667.529 28.0989 667.098 28.9417C666.672 29.7845 666.068 30.4402 665.287 30.909C664.506 31.3777 663.582 31.6121 662.517 31.6121ZM662.531 29.5525C663.109 29.5525 663.592 29.3938 663.98 29.0766C664.368 28.7546 664.657 28.3238 664.847 27.784C665.041 27.2442 665.138 26.6429 665.138 25.98C665.138 25.3124 665.041 24.7087 664.847 24.1689C664.657 23.6244 664.368 23.1912 663.98 22.8692C663.592 22.5472 663.109 22.3863 662.531 22.3863C661.939 22.3863 661.447 22.5472 661.054 22.8692C660.666 23.1912 660.375 23.6244 660.18 24.1689C659.991 24.7087 659.896 25.3124 659.896 25.98C659.896 26.6429 659.991 27.2442 660.18 27.784C660.375 28.3238 660.666 28.7546 661.054 29.0766C661.447 29.3938 661.939 29.5525 662.531 29.5525ZM669.926 31.399V20.49H672.384V22.3436H672.512C672.739 21.7186 673.115 21.231 673.641 20.8806C674.167 20.5255 674.794 20.3479 675.523 20.3479C676.262 20.3479 676.884 20.5278 677.391 20.8877C677.902 21.2428 678.262 21.7281 678.471 22.3436H678.584C678.826 21.7376 679.233 21.2546 679.806 20.8948C680.383 20.5302 681.068 20.3479 681.858 20.3479C682.862 20.3479 683.681 20.6651 684.316 21.2996C684.95 21.9341 685.267 22.8597 685.267 24.0766V31.399H682.689V24.4743C682.689 23.7972 682.509 23.3025 682.15 22.99C681.79 22.6727 681.349 22.5141 680.828 22.5141C680.208 22.5141 679.723 22.7082 679.373 23.0965C679.027 23.48 678.854 23.9795 678.854 24.5951V31.399H676.333V24.3678C676.333 23.8044 676.162 23.3545 675.821 23.0184C675.485 22.6822 675.045 22.5141 674.5 22.5141C674.131 22.5141 673.795 22.6088 673.492 22.7982C673.189 22.9829 672.947 23.2456 672.767 23.5865C672.587 23.9227 672.498 24.3157 672.498 24.7655V31.399H669.926ZM692.705 31.6121C691.612 31.6121 690.667 31.3848 689.871 30.9303C689.081 30.471 688.472 29.8223 688.046 28.9843C687.62 28.1415 687.407 27.1495 687.407 26.0084C687.407 24.8863 687.62 23.9014 688.046 23.0539C688.477 22.2016 689.078 21.5387 689.85 21.0652C690.622 20.587 691.529 20.3479 692.57 20.3479C693.243 20.3479 693.877 20.4568 694.474 20.6746C695.075 20.8877 695.605 21.2191 696.065 21.6689C696.529 22.1187 696.893 22.6917 697.158 23.3877C697.424 24.079 697.556 24.9028 697.556 25.8593V26.6476H688.614V24.9147H695.092C695.087 24.4222 694.98 23.9843 694.772 23.6008C694.564 23.2125 694.272 22.9071 693.898 22.6846C693.529 22.462 693.098 22.3508 692.606 22.3508C692.08 22.3508 691.619 22.4786 691.221 22.7343C690.823 22.9852 690.513 23.3167 690.29 23.7286C690.073 24.1358 689.961 24.5832 689.957 25.0709V26.5837C689.957 27.2182 690.073 27.7627 690.305 28.2172C690.537 28.667 690.861 29.0127 691.278 29.2542C691.694 29.4909 692.182 29.6093 692.741 29.6093C693.115 29.6093 693.453 29.5572 693.756 29.453C694.059 29.3441 694.322 29.1855 694.545 28.9772C694.767 28.7688 694.935 28.5108 695.049 28.203L697.45 28.4729C697.298 29.1074 697.009 29.6614 696.583 30.1348C696.162 30.6036 695.622 30.9682 694.964 31.2286C694.306 31.4843 693.553 31.6121 692.705 31.6121ZM699.731 31.399V20.49H702.224V22.3081H702.338C702.537 21.6784 702.877 21.1931 703.36 20.8522C703.848 20.5065 704.404 20.3337 705.029 20.3337C705.172 20.3337 705.33 20.3408 705.505 20.355C705.685 20.3645 705.834 20.3811 705.953 20.4047V22.7698C705.844 22.7319 705.671 22.6988 705.434 22.6704C705.202 22.6372 704.977 22.6206 704.76 22.6206C704.291 22.6206 703.869 22.7224 703.495 22.926C703.126 23.1249 702.835 23.4019 702.622 23.757C702.409 24.1121 702.302 24.5217 702.302 24.9857V31.399H699.731ZM716.283 23.3735L713.939 23.6292C713.873 23.3924 713.757 23.1699 713.591 22.9615C713.43 22.7532 713.212 22.5851 712.938 22.4573C712.663 22.3294 712.327 22.2655 711.929 22.2655C711.394 22.2655 710.944 22.3815 710.58 22.6135C710.22 22.8455 710.042 23.1462 710.047 23.5155C710.042 23.8328 710.158 24.0908 710.395 24.2897C710.637 24.4885 711.034 24.6519 711.588 24.7797L713.449 25.1775C714.481 25.4 715.248 25.7527 715.75 26.2357C716.257 26.7186 716.513 27.3508 716.517 28.132C716.513 28.8186 716.311 29.4246 715.914 29.9502C715.521 30.471 714.974 30.8782 714.273 31.1718C713.572 31.4653 712.767 31.6121 711.858 31.6121C710.523 31.6121 709.448 31.3328 708.634 30.774C707.819 30.2106 707.334 29.427 707.178 28.4232L709.685 28.1817C709.799 28.6741 710.04 29.0458 710.409 29.2968C710.779 29.5477 711.259 29.6732 711.851 29.6732C712.462 29.6732 712.952 29.5477 713.321 29.2968C713.695 29.0458 713.882 28.7357 713.882 28.3664C713.882 28.0539 713.762 27.7958 713.52 27.5922C713.283 27.3886 712.914 27.2324 712.412 27.1235L710.551 26.7329C709.505 26.5151 708.731 26.1481 708.229 25.632C707.727 25.1112 707.479 24.453 707.483 23.6576C707.479 22.9852 707.661 22.4028 708.03 21.9104C708.404 21.4133 708.923 21.0297 709.586 20.7598C710.253 20.4852 711.023 20.3479 711.894 20.3479C713.172 20.3479 714.178 20.6202 714.912 21.1647C715.651 21.7092 716.108 22.4454 716.283 23.3735Z" fill="#4CAF4F"/>
<path d="M745 28.399L748.293 25.1062C748.683 24.7156 748.683 24.0825 748.293 23.6919L745 20.399M748 24.399L734 24.399" stroke="#4CAF4F" stroke-width="1.5" stroke-linecap="round"/>
<defs>
<clipPath id="clip0_22_791">
<rect width="40" height="40" fill="white" transform="translate(0.353333 0.593567)"/>
</clipPath>
<clipPath id="clip1_22_791">
<rect width="40" height="28" fill="white" transform="translate(89.1123 10.2458)"/>
</clipPath>
<clipPath id="clip2_22_791">
<rect width="55" height="30" fill="white" transform="translate(178 9.24585)"/>
</clipPath>
<clipPath id="clip3_22_791">
<rect width="47" height="29" fill="white" transform="translate(267 10.2458)"/>
</clipPath>
<clipPath id="clip4_22_791">
<rect width="41" height="27" fill="white" transform="translate(356 11.2458)"/>
</clipPath>
<clipPath id="clip5_22_791">
<rect width="52" height="20" fill="white" transform="translate(445 14.2458)"/>
</clipPath>
</defs>
</svg>
